Coordinates
nRows=10
nColumns=34

# SIMM Motion File Header:
name Coordinates
datacolumns 34
datarows 10
otherdata 1
range 0.45475000 0.47625000

Units are S.I. units (second, meters, Newtons, ...)
Angles are in degrees.

endheader
time	pelvis_tz	pelvis_tx	pelvis_ty	pelvis_tilt	pelvis_list	pelvis_rotation	hip_flexion_r	hip_adduction_r	hip_rotation_r	knee_r_tx	knee_r_ty	knee_angle_r	tib_pat_r_tx	tib_pat_r_ty	tib_pat_r_r1	ankle_angle_r	subtalar_angle_r	mtp_angle_r	hip_flexion_l	hip_adduction_l	hip_rotation_l	knee_l_tx	knee_l_ty	knee_angle_l	tib_pat_l_tx	tib_pat_l_ty	tib_pat_l_r1	ankle_angle_l	subtalar_angle_l	mtp_angle_l	lumbar_extension	lumbar_bending	lumbar_rotation
      0.45475000	     -0.26186494	      0.28738525	      0.90948151	     -1.29449124	     -0.48715470	     -2.54005151	     -9.55317564	      2.40183507	     16.83802237	     -0.00419266	     -0.41344660	     -4.20876581	      0.04613072	     -0.02114256	      4.51989637	     16.01181711	      0.00000000	      0.00000000	     23.69260344	      0.33335817	      6.81695606	     -0.00191376	     -0.41453658	    -16.09803117	      0.04442018	     -0.02062036	     12.29701962	      2.95928966	      0.00000000	      0.00000000	     -5.20362426	      5.10755119	      2.68986204
      0.45725000	     -0.26202624	      0.28976398	      0.90891102	     -1.27712378	     -0.60879163	     -2.55379348	     -9.69365593	      2.53449765	     16.89537628	     -0.00417739	     -0.41345545	     -4.31939978	      0.04611770	     -0.02113811	      4.62556069	     16.17591947	      0.00000000	      0.00000000	     23.65343243	      0.20082569	      7.04207996	     -0.00209176	     -0.41445398	    -15.31553140	      0.04452631	     -0.02064764	     11.97369221	      2.84361380	      0.00000000	      0.00000000	     -5.27078184	      5.25639558	      2.69458170
      0.45975000	     -0.26218288	      0.29215092	      0.90833739	     -1.25868101	     -0.72661392	     -2.56965939	     -9.83326292	      2.66376340	     16.95303171	     -0.00416149	     -0.41346462	     -4.43372172	      0.04610402	     -0.02113342	      4.73398498	     16.34047752	      0.00000000	      0.00000000	     23.61186768	      0.07004274	      7.26111649	     -0.00226562	     -0.41437493	    -14.54778550	      0.04463069	     -0.02067512	     11.63496061	      2.72289794	      0.00000000	      0.00000000	     -5.33846571	      5.39943479	      2.70099132
      0.46175000	     -0.26230489	      0.29406653	      0.90787644	     -1.24332018	     -0.81823387	     -2.58383369	     -9.94418248	      2.76486310	     16.99927674	     -0.00414833	     -0.41347217	     -4.52775236	      0.04609258	     -0.02112952	      4.82258618	     16.47181298	      0.00000000	      0.00000000	     23.57716321	     -0.03339729	      7.43179089	     -0.00240108	     -0.41431413	    -13.94484249	      0.04471316	     -0.02069732	     11.35338662	      2.62378035	      0.00000000	      0.00000000	     -5.39277054	      5.50980360	      2.70734034
      0.46425000	     -0.26245313	      0.29646885	      0.90729836	     -1.22328132	     -0.92925446	     -2.60345981	    -10.08198052	      2.88809728	     17.05712441	     -0.00413131	     -0.41348190	     -4.64847663	      0.04607768	     -0.02112443	      4.93557707	     16.63382572	      0.00000000	      0.00000000	     23.53197818	     -0.16097014	      7.63895835	     -0.00256514	     -0.41424110	    -13.20606577	      0.04481517	     -0.02072541	     10.98898959	      2.49742995	      0.00000000	      0.00000000	     -5.46089646	      5.64239905	      2.71692020
      0.46675000	     -0.26259620	      0.29888008	      0.90671948	     -1.20195976	     -1.03595681	     -2.62550634	    -10.21917069	      3.00727194	     17.11495320	     -0.00411365	     -0.41349195	     -4.77275907	      0.04606208	     -0.02111911	      5.05100609	     16.78732092	      0.00000000	      0.00000000	     23.48450764	     -0.28621968	      7.83833593	     -0.00272261	     -0.41417125	    -12.48488092	      0.04491616	     -0.02075393	     10.61191245	      2.36850172	      0.00000000	      0.00000000	     -5.52967410	      5.76845214	      2.72871846
      0.46925000	     -0.26273379	      0.30130028	      0.90614044	     -1.17944935	     -1.13819579	     -2.65017867	    -10.35544336	      3.12222785	     17.17276131	     -0.00409525	     -0.41350235	     -4.90115327	      0.04604571	     -0.02111354	      5.16930778	     16.92833698	      0.00000000	      0.00000000	     23.43506380	     -0.40898882	      8.02925539	     -0.00287278	     -0.41410450	    -11.78252281	      0.04501624	     -0.02078289	     10.22363962	      2.23769126	      0.00000000	      0.00000000	     -5.59899276	      5.88774450	      2.74304547
      0.47125000	     -0.26283990	      0.30324280	      0.90567705	     -1.16094416	     -1.21684666	     -2.67179180	    -10.46319531	      3.21133410	     17.21901095	     -0.00407990	     -0.41351100	     -5.00753273	      0.04603194	     -0.02110886	      5.26659992	     17.03340066	      0.00000000	      0.00000000	     23.39467619	     -0.50543003	      8.17578425	     -0.00298725	     -0.41405326	    -11.23503784	      0.04509567	     -0.02080638	      9.90611050	      2.13258522	      0.00000000	      0.00000000	     -5.65442234	      5.97839620	      2.75637230
      0.47375000	     -0.26296772	      0.30567892	      0.90509747	     -1.13758864	     -1.31101343	     -2.70103797	    -10.59566119	      3.31904271	     17.27674537	     -0.00405978	     -0.41352227	     -5.14587141	      0.04601378	     -0.02110269	      5.39214255	     17.16047487	      0.00000000	      0.00000000	     23.34382062	     -0.62339385	      8.35110153	     -0.00312287	     -0.41399187	    -10.56963822	      0.04519415	     -0.02083610	      9.50211036	      2.00047454	      0.00000000	      0.00000000	     -5.72317466	      6.08547959	      2.77528709
      0.47625000	     -0.26309017	      0.30812415	      0.90451810	     -1.11385907	     -1.39973545	     -2.73281043	    -10.72574992	      3.42177828	     17.33427955	     -0.00403856	     -0.41353409	     -5.29043200	      0.04599451	     -0.02109615	      5.52215488	     17.29014115	      0.00000000	      0.00000000	     23.29256123	     -0.73749382	      8.51716402	     -0.00324989	     -0.41393333	     -9.92617140	      0.04529171	     -0.02086618	      9.09200729	      1.86558324	      0.00000000	      0.00000000	     -5.79138313	      6.18462133	      2.79678804
